<svg width="683" height="155" viewBox="0 0 683 155" fill="none" xmlns="http://www.w3.org/2000/svg">
<path d="M8.09091 124V30.9091H44.8182C51.8788 30.9091 57.8939 32.2576 62.8636 34.9545C67.8333 37.6212 71.6212 41.3333 74.2273 46.0909C76.8636 50.8182 78.1818 56.2727 78.1818 62.4545C78.1818 68.6364 76.8485 74.0909 74.1818 78.8182C71.5152 83.5455 67.6515 87.2273 62.5909 89.8636C57.5606 92.5 51.4697 93.8182 44.3182 93.8182H20.9091V78.0455H41.1364C44.9242 78.0455 48.0455 77.3939 50.5 76.0909C52.9849 74.7576 54.8333 72.9242 56.0455 70.5909C57.2879 68.2273 57.9091 65.5151 57.9091 62.4545C57.9091 59.3636 57.2879 56.6667 56.0455 54.3636C54.8333 52.0303 52.9849 50.2273 50.5 48.9545C48.0152 47.6515 44.8636 47 41.0455 47H27.7727V124H8.09091ZM90.6023 124V54.1818H109.375V66.3636H110.102C111.375 62.0303 113.511 58.7576 116.511 56.5455C119.511 54.303 122.966 53.1818 126.875 53.1818C127.845 53.1818 128.89 53.2424 130.011 53.3636C131.133 53.4848 132.117 53.6515 132.966 53.8636V71.0455C132.057 70.7727 130.799 70.5303 129.193 70.3182C127.587 70.1061 126.117 70 124.784 70C121.936 70 119.39 70.6212 117.148 71.8636C114.936 73.0758 113.178 74.7727 111.875 76.9545C110.602 79.1364 109.966 81.6515 109.966 84.5V124H90.6023ZM171.545 125.364C164.364 125.364 158.182 123.909 153 121C147.848 118.061 143.879 113.909 141.091 108.545C138.303 103.152 136.909 96.7727 136.909 89.4091C136.909 82.2273 138.303 75.9242 141.091 70.5C143.879 65.0758 147.803 60.8485 152.864 57.8182C157.955 54.7879 163.924 53.2727 170.773 53.2727C175.379 53.2727 179.667 54.0152 183.636 55.5C187.636 56.9545 191.121 59.1515 194.091 62.0909C197.091 65.0303 199.424 68.7273 201.091 73.1818C202.758 77.6061 203.591 82.7879 203.591 88.7273V94.0455H144.636V82.0455H185.364C185.364 79.2576 184.758 76.7879 183.545 74.6364C182.333 72.4848 180.652 70.803 178.5 69.5909C176.379 68.3485 173.909 67.7273 171.091 67.7273C168.152 67.7273 165.545 68.4091 163.273 69.7727C161.03 71.1061 159.273 72.9091 158 75.1818C156.727 77.4242 156.076 79.9242 156.045 82.6818V94.0909C156.045 97.5455 156.682 100.53 157.955 103.045C159.258 105.561 161.091 107.5 163.455 108.864C165.818 110.227 168.621 110.909 171.864 110.909C174.015 110.909 175.985 110.606 177.773 110C179.561 109.394 181.091 108.485 182.364 107.273C183.636 106.061 184.606 104.576 185.273 102.818L203.182 104C202.273 108.303 200.409 112.061 197.591 115.273C194.803 118.455 191.197 120.939 186.773 122.727C182.379 124.485 177.303 125.364 171.545 125.364ZM274.318 74.0909L256.591 75.1818C256.288 73.6667 255.636 72.303 254.636 71.0909C253.636 69.8485 252.318 68.8636 250.682 68.1364C249.076 67.3788 247.152 67 244.909 67C241.909 67 239.379 67.6364 237.318 68.9091C235.258 70.1515 234.227 71.8182 234.227 73.9091C234.227 75.5758 234.894 76.9848 236.227 78.1364C237.561 79.2879 239.848 80.2121 243.091 80.9091L255.727 83.4545C262.515 84.8485 267.576 87.0909 270.909 90.1818C274.242 93.2727 275.909 97.3333 275.909 102.364C275.909 106.939 274.561 110.955 271.864 114.409C269.197 117.864 265.53 120.561 260.864 122.5C256.227 124.409 250.879 125.364 244.818 125.364C235.576 125.364 228.212 123.439 222.727 119.591C217.273 115.712 214.076 110.439 213.136 103.773L232.182 102.773C232.758 105.591 234.152 107.742 236.364 109.227C238.576 110.682 241.409 111.409 244.864 111.409C248.258 111.409 250.985 110.758 253.045 109.455C255.136 108.121 256.197 106.409 256.227 104.318C256.197 102.561 255.455 101.121 254 100C252.545 98.8485 250.303 97.9697 247.273 97.3636L235.182 94.9545C228.364 93.5909 223.288 91.2273 219.955 87.8636C216.652 84.5 215 80.2121 215 75C215 70.5151 216.212 66.6515 218.636 63.4091C221.091 60.1667 224.53 57.6667 228.955 55.9091C233.409 54.1515 238.621 53.2727 244.591 53.2727C253.409 53.2727 260.348 55.1364 265.409 58.8636C270.5 62.5909 273.47 67.6667 274.318 74.0909ZM319.92 125.364C312.739 125.364 306.557 123.909 301.375 121C296.223 118.061 292.254 113.909 289.466 108.545C286.678 103.152 285.284 96.7727 285.284 89.4091C285.284 82.2273 286.678 75.9242 289.466 70.5C292.254 65.0758 296.178 60.8485 301.239 57.8182C306.33 54.7879 312.299 53.2727 319.148 53.2727C323.754 53.2727 328.042 54.0152 332.011 55.5C336.011 56.9545 339.496 59.1515 342.466 62.0909C345.466 65.0303 347.799 68.7273 349.466 73.1818C351.133 77.6061 351.966 82.7879 351.966 88.7273V94.0455H293.011V82.0455H333.739C333.739 79.2576 333.133 76.7879 331.92 74.6364C330.708 72.4848 329.027 70.803 326.875 69.5909C324.754 68.3485 322.284 67.7273 319.466 67.7273C316.527 67.7273 313.92 68.4091 311.648 69.7727C309.405 71.1061 307.648 72.9091 306.375 75.1818C305.102 77.4242 304.451 79.9242 304.42 82.6818V94.0909C304.42 97.5455 305.057 100.53 306.33 103.045C307.633 105.561 309.466 107.5 311.83 108.864C314.193 110.227 316.996 110.909 320.239 110.909C322.39 110.909 324.36 110.606 326.148 110C327.936 109.394 329.466 108.485 330.739 107.273C332.011 106.061 332.981 104.576 333.648 102.818L351.557 104C350.648 108.303 348.784 112.061 345.966 115.273C343.178 118.455 339.572 120.939 335.148 122.727C330.754 124.485 325.678 125.364 319.92 125.364ZM383.966 83.6364V124H364.602V54.1818H383.057V66.5H383.875C385.42 62.4394 388.011 59.2273 391.648 56.8636C395.284 54.4697 399.693 53.2727 404.875 53.2727C409.723 53.2727 413.951 54.3333 417.557 56.4545C421.163 58.5758 423.966 61.6061 425.966 65.5455C427.966 69.4545 428.966 74.1212 428.966 79.5455V124H409.602V83C409.633 78.7273 408.542 75.3939 406.33 73C404.117 70.5758 401.072 69.3636 397.193 69.3636C394.587 69.3636 392.284 69.9242 390.284 71.0455C388.314 72.1667 386.769 73.803 385.648 75.9545C384.557 78.0758 383.996 80.6364 383.966 83.6364ZM481.364 54.1818V68.7273H439.318V54.1818H481.364ZM448.864 37.4545H468.227V102.545C468.227 104.333 468.5 105.727 469.045 106.727C469.591 107.697 470.348 108.379 471.318 108.773C472.318 109.167 473.47 109.364 474.773 109.364C475.682 109.364 476.591 109.288 477.5 109.136C478.409 108.955 479.106 108.818 479.591 108.727L482.636 123.136C481.667 123.439 480.303 123.788 478.545 124.182C476.788 124.606 474.652 124.864 472.136 124.955C467.47 125.136 463.379 124.515 459.864 123.091C456.379 121.667 453.667 119.455 451.727 116.455C449.788 113.455 448.833 109.667 448.864 105.091V37.4545ZM538.75 94.2727V54.1818H558.114V124H539.523V111.318H538.795C537.22 115.409 534.598 118.697 530.932 121.182C527.295 123.667 522.856 124.909 517.614 124.909C512.947 124.909 508.841 123.848 505.295 121.727C501.75 119.606 498.977 116.591 496.977 112.682C495.008 108.773 494.008 104.091 493.977 98.6364V54.1818H513.341V95.1818C513.371 99.303 514.477 102.561 516.659 104.955C518.841 107.348 521.765 108.545 525.432 108.545C527.765 108.545 529.947 108.015 531.977 106.955C534.008 105.864 535.644 104.258 536.886 102.136C538.159 100.015 538.78 97.3939 538.75 94.2727ZM573.602 124V54.1818H592.057V66.5H592.875C594.33 62.4091 596.754 59.1818 600.148 56.8182C603.542 54.4545 607.602 53.2727 612.33 53.2727C617.117 53.2727 621.193 54.4697 624.557 56.8636C627.92 59.2273 630.163 62.4394 631.284 66.5H632.011C633.436 62.5 636.011 59.303 639.739 56.9091C643.496 54.4848 647.936 53.2727 653.057 53.2727C659.572 53.2727 664.86 55.3485 668.92 59.5C673.011 63.6212 675.057 69.4697 675.057 77.0455V124H655.739V80.8636C655.739 76.9848 654.708 74.0758 652.648 72.1364C650.587 70.197 648.011 69.2273 644.92 69.2273C641.405 69.2273 638.663 70.3485 636.693 72.5909C634.723 74.803 633.739 77.7273 633.739 81.3636V124H614.966V80.4545C614.966 77.0303 613.981 74.303 612.011 72.2727C610.072 70.2424 607.511 69.2273 604.33 69.2273C602.178 69.2273 600.239 69.7727 598.511 70.8636C596.814 71.9242 595.466 73.4242 594.466 75.3636C593.466 77.2727 592.966 79.5152 592.966 82.0909V124H573.602Z" fill="black"/>
</svg>
